<svg width="969" height="600" viewBox="0 0 969 600" fill="none" xmlns="http://www.w3.org/2000/svg">
<rect width="969" height="600" fill="white"/>
<g filter="url(#filter0_dg_53_2)">
<path d="M172 206H315L371.5 199.5L418 294.5L408 350.5L230.5 423.5L180 326L172 206Z" fill="#D9D9D9" fill-opacity="0.03" shape-rendering="crispEdges"/>
<path d="M373.745 198.401L420.245 293.401L420.604 294.135L420.461 294.939L410.461 350.939L410.22 352.29L408.951 352.812L231.451 425.812L229.333 426.683L228.28 424.649L177.78 327.149L177.54 326.687L177.506 326.166L169.328 203.5H314.858L371.214 197.017L372.969 196.814L373.745 198.401Z" stroke="#2556EB" stroke-width="5" shape-rendering="crispEdges"/>
</g>
<g filter="url(#filter1_dg_53_2)">
<path d="M530 237.5L558 230L580.5 235L599 263.5L635.5 257L670.5 276V300.5L690.5 341.5L754 500.5L719.5 519.5L670.5 523L650.5 489L642 449.5L647 415.5H635.5L619 445L610.5 472.5H589.5V401V350.5L568 320L536 312L520 294L514 263.5L530 237.5Z" fill="#D9D9D9" fill-opacity="0.03" shape-rendering="crispEdges"/>
<path d="M673 299.922L692.747 340.404L692.787 340.487L692.821 340.573L756.321 499.573L757.141 501.624L755.206 502.689L720.706 521.689L720.226 521.954L719.678 521.993L670.678 525.493L669.132 525.604L668.345 524.268L648.345 490.268L648.141 489.92L648.056 489.526L639.556 450.026L639.461 449.584L639.526 449.137L644.105 418H636.966L621.311 445.988L612.889 473.238L612.344 475H587V351.292L566.492 322.2L535.394 314.426L534.645 314.238L534.132 313.661L517.679 295.151L517.547 294.482L511.547 263.982L511.358 263.022L511.871 262.189L527.871 236.189L528.393 235.343L529.354 235.085L557.354 227.585L557.944 227.427L581.042 232.56L582.04 232.781L582.597 233.639L600.193 260.748L635.062 254.539L635.924 254.386L636.692 254.803L671.692 273.803L673 274.513V299.922Z" stroke="#EB9225" stroke-width="5" shape-rendering="crispEdges"/>
</g>
<g filter="url(#filter2_dg_53_2)">
<path d="M537.89 346.767L548.332 380.82L571.476 363.019L575.323 360.059L575.498 364.91L579.498 475.91L579.567 477.819L577.743 478.387L479.743 508.887L478.364 509.316L477.303 508.336L444.303 477.836L443.997 477.553L443.799 477.186L426.299 444.686L425.467 443.14L426.638 441.832L447.203 418.874L434.604 376.716L433.883 374.3L436.305 373.599L534.805 345.099L537.169 344.415L537.89 346.767Z" stroke="#E4EB25" stroke-width="5" shape-rendering="crispEdges"/>
</g>
<g filter="url(#filter3_dg_53_2)">
<path d="M737.5 282H759L773.5 307.5L764 329.5L747 338.5L720 335.5L692 294L710 271H727L737.5 282Z" fill="#D9D9D9" fill-opacity="0.01" shape-rendering="crispEdges"/>
<path d="M728.069 268.5L728.809 269.273L738.57 279.5H760.454L761.173 280.765L775.673 306.265L776.289 307.348L775.795 308.491L766.295 330.491L765.946 331.298L765.17 331.709L747.489 341.069L746.724 340.984L719.724 337.984L718.574 337.857L717.928 336.898L689.928 295.398L688.911 293.891L690.031 292.459L708.031 269.459L708.782 268.5H728.069Z" stroke="#EB2584" stroke-width="5" shape-rendering="crispEdges"/>
</g>
<g filter="url(#filter4_dg_53_2)">
<path d="M779 356.5L785.5 380.5L792.5 392L803.5 403L808.5 416.5L828 445L779 471.5L757 474.5L750 436.5L747 409.5L730.5 392L726.5 373L735 362L750 356.5L768 351L779 356.5Z" fill="#D9D9D9" fill-opacity="0.01" shape-rendering="crispEdges"/>
<path d="M769.118 348.764L781.12 354.765L781.413 355.847L787.819 379.502L794.48 390.445L805.654 401.619L805.845 402.132L810.737 415.342L830.063 443.588L831.631 445.879L829.189 447.199L780.189 473.699L779.789 473.916L757.338 476.978L754.974 477.3L754.541 474.953L747.541 436.953L747.525 436.865L747.516 436.776L744.607 410.607L728.681 393.715L728.198 393.203L728.054 392.515L724.054 373.515L723.815 372.385L724.521 371.472L733.021 360.472L733.463 359.901L734.14 359.652L749.14 354.152L749.204 354.129L749.27 354.109L767.27 348.609L768.225 348.317L769.118 348.764Z" stroke="#258EEB" stroke-width="5" shape-rendering="crispEdges"/>
</g>
<g filter="url(#filter5_dg_53_2)">
<path d="M85 502.5L413 389L427.5 426.5L413 437L433.5 477L396 502.5L218 543L181.5 519L103.5 549L85 502.5Z" fill="#D9D9D9" fill-opacity="0.02" shape-rendering="crispEdges"/>
<path d="M415.332 388.099L429.832 425.599L430.526 427.396L428.966 428.524L416.202 437.767L435.725 475.859L436.732 477.825L434.906 479.067L397.016 504.833L396.555 504.938L218.555 545.438L217.517 545.674L216.627 545.089L181.198 521.793L104.397 551.333L102.091 552.221L101.177 549.924L82.6768 503.424L81.71 500.993L84.1826 500.138L412.183 386.638L414.462 385.849L415.332 388.099Z" stroke="#C325EB" stroke-width="5" shape-rendering="crispEdges"/>
</g>
<defs>
<filter id="filter0_dg_53_2" x="162.656" y="192.129" width="264.554" height="245.737" filterUnits="userSpaceOnUse" color-interpolation-filters="sRGB">
<feFlood flood-opacity="0" result="BackgroundImageFix"/>
<feColorMatrix in="SourceAlpha" type="matrix" values="0 0 0 0 0 0 0 0 0 0 0 0 0 0 0 0 0 0 127 0" result="hardAlpha"/>
<feOffset dy="4"/>
<feGaussianBlur stdDeviation="2"/>
<feComposite in2="hardAlpha" operator="out"/>
<feColorMatrix type="matrix" values="0 0 0 0 0 0 0 0 0 0 0 0 0 0 0 0 0 0 0.25 0"/>
<feBlend mode="normal" in2="BackgroundImageFix" result="effect1_dropShadow_53_2"/>
<feBlend mode="normal" in="SourceGraphic" in2="effect1_dropShadow_53_2" result="shape"/>
<feTurbulence type="fractalNoise" baseFrequency="0.20000000298023224 0.20000000298023224" numOctaves="3" seed="4588" />
<feDisplacementMap in="shape" scale="4" xChannelSelector="R" yChannelSelector="G" result="displacedImage" width="100%" height="100%" />
<feMerge result="effect2_texture_53_2">
<feMergeNode in="displacedImage"/>
</feMerge>
</filter>
<filter id="filter1_dg_53_2" x="504.716" y="222.853" width="259.565" height="313.355" filterUnits="userSpaceOnUse" color-interpolation-filters="sRGB">
<feFlood flood-opacity="0" result="BackgroundImageFix"/>
<feColorMatrix in="SourceAlpha" type="matrix" values="0 0 0 0 0 0 0 0 0 0 0 0 0 0 0 0 0 0 127 0" result="hardAlpha"/>
<feOffset dy="4"/>
<feGaussianBlur stdDeviation="2"/>
<feComposite in2="hardAlpha" operator="out"/>
<feColorMatrix type="matrix" values="0 0 0 0 0 0 0 0 0 0 0 0 0 0 0 0 0 0 0.25 0"/>
<feBlend mode="normal" in2="BackgroundImageFix" result="effect1_dropShadow_53_2"/>
<feBlend mode="normal" in="SourceGraphic" in2="effect1_dropShadow_53_2" result="shape"/>
<feTurbulence type="fractalNoise" baseFrequency="0.20000000298023224 0.20000000298023224" numOctaves="3" seed="4588" />
<feDisplacementMap in="shape" scale="4" xChannelSelector="R" yChannelSelector="G" result="displacedImage" width="100%" height="100%" />
<feMerge result="effect2_texture_53_2">
<feMergeNode in="displacedImage"/>
</feMerge>
</filter>
<filter id="filter2_dg_53_2" x="418.433" y="339.329" width="167.701" height="180.803" filterUnits="userSpaceOnUse" color-interpolation-filters="sRGB">
<feFlood flood-opacity="0" result="BackgroundImageFix"/>
<feColorMatrix in="SourceAlpha" type="matrix" values="0 0 0 0 0 0 0 0 0 0 0 0 0 0 0 0 0 0 127 0" result="hardAlpha"/>
<feOffset dy="4"/>
<feGaussianBlur stdDeviation="2"/>
<feComposite in2="hardAlpha" operator="out"/>
<feColorMatrix type="matrix" values="0 0 0 0 0 0 0 0 0 0 0 0 0 0 0 0 0 0 0.25 0"/>
<feBlend mode="normal" in2="BackgroundImageFix" result="effect1_dropShadow_53_2"/>
<feBlend mode="normal" in="SourceGraphic" in2="effect1_dropShadow_53_2" result="shape"/>
<feTurbulence type="fractalNoise" baseFrequency="0.20000000298023224 0.20000000298023224" numOctaves="3" seed="4588" />
<feDisplacementMap in="shape" scale="4" xChannelSelector="R" yChannelSelector="G" result="displacedImage" width="100%" height="100%" />
<feMerge result="effect2_texture_53_2">
<feMergeNode in="displacedImage"/>
</feMerge>
</filter>
<filter id="filter3_dg_53_2" x="681.821" y="264" width="101.257" height="87.6395" filterUnits="userSpaceOnUse" color-interpolation-filters="sRGB">
<feFlood flood-opacity="0" result="BackgroundImageFix"/>
<feColorMatrix in="SourceAlpha" type="matrix" values="0 0 0 0 0 0 0 0 0 0 0 0 0 0 0 0 0 0 127 0" result="hardAlpha"/>
<feOffset dy="4"/>
<feGaussianBlur stdDeviation="2"/>
<feComposite in2="hardAlpha" operator="out"/>
<feColorMatrix type="matrix" values="0 0 0 0 0 0 0 0 0 0 0 0 0 0 0 0 0 0 0.25 0"/>
<feBlend mode="normal" in2="BackgroundImageFix" result="effect1_dropShadow_53_2"/>
<feBlend mode="normal" in="SourceGraphic" in2="effect1_dropShadow_53_2" result="shape"/>
<feTurbulence type="fractalNoise" baseFrequency="0.20000000298023224 0.20000000298023224" numOctaves="3" seed="4588" />
<feDisplacementMap in="shape" scale="4" xChannelSelector="R" yChannelSelector="G" result="displacedImage" width="100%" height="100%" />
<feMerge result="effect2_texture_53_2">
<feMergeNode in="displacedImage"/>
</feMerge>
</filter>
<filter id="filter4_dg_53_2" x="717.131" y="343.635" width="122.129" height="144.464" filterUnits="userSpaceOnUse" color-interpolation-filters="sRGB">
<feFlood flood-opacity="0" result="BackgroundImageFix"/>
<feColorMatrix in="SourceAlpha" type="matrix" values="0 0 0 0 0 0 0 0 0 0 0 0 0 0 0 0 0 0 127 0" result="hardAlpha"/>
<feOffset dy="4"/>
<feGaussianBlur stdDeviation="2"/>
<feComposite in2="hardAlpha" operator="out"/>
<feColorMatrix type="matrix" values="0 0 0 0 0 0 0 0 0 0 0 0 0 0 0 0 0 0 0.25 0"/>
<feBlend mode="normal" in2="BackgroundImageFix" result="effect1_dropShadow_53_2"/>
<feBlend mode="normal" in="SourceGraphic" in2="effect1_dropShadow_53_2" result="shape"/>
<feTurbulence type="fractalNoise" baseFrequency="0.20000000298023224 0.20000000298023224" numOctaves="3" seed="4588" />
<feDisplacementMap in="shape" scale="4" xChannelSelector="R" yChannelSelector="G" result="displacedImage" width="100%" height="100%" />
<feMerge result="effect2_texture_53_2">
<feMergeNode in="displacedImage"/>
</feMerge>
</filter>
<filter id="filter5_dg_53_2" x="74.4197" y="380.697" width="369.545" height="182.744" filterUnits="userSpaceOnUse" color-interpolation-filters="sRGB">
<feFlood flood-opacity="0" result="BackgroundImageFix"/>
<feColorMatrix in="SourceAlpha" type="matrix" values="0 0 0 0 0 0 0 0 0 0 0 0 0 0 0 0 0 0 127 0" result="hardAlpha"/>
<feOffset dy="4"/>
<feGaussianBlur stdDeviation="2"/>
<feComposite in2="hardAlpha" operator="out"/>
<feColorMatrix type="matrix" values="0 0 0 0 0 0 0 0 0 0 0 0 0 0 0 0 0 0 0.25 0"/>
<feBlend mode="normal" in2="BackgroundImageFix" result="effect1_dropShadow_53_2"/>
<feBlend mode="normal" in="SourceGraphic" in2="effect1_dropShadow_53_2" result="shape"/>
<feTurbulence type="fractalNoise" baseFrequency="0.20000000298023224 0.20000000298023224" numOctaves="3" seed="4588" />
<feDisplacementMap in="shape" scale="4" xChannelSelector="R" yChannelSelector="G" result="displacedImage" width="100%" height="100%" />
<feMerge result="effect2_texture_53_2">
<feMergeNode in="displacedImage"/>
</feMerge>
</filter>
</defs>
</svg>
